<svg xmlns="http://www.w3.org/2000/svg" width="99" height="22" viewBox="0 0 99 22" fill="none"><g clip-path="url(#clip0_3363_2628)"><path d="M73.4729 0.210999H76.8602L80.457 7.45498L81.9586 0.210999H85.9046L83.0411 13.8902H79.6538L76.0919 6.68135L74.5903 13.8902H70.6443L73.4729 0.210999Z" fill="white"></path><path d="M85.7651 8.86157C85.7651 8.29893 85.835 7.73629 85.9397 7.10332C86.9175 2.53188 89.5715 0 95.0191 0C96.6953 0 97.8826 0.28132 99.0001 0.738464L98.2667 4.21979C97.1493 3.65716 95.962 3.411 94.5651 3.411C92.0159 3.411 90.5493 4.50111 89.9905 7.13849C89.8858 7.63079 89.8159 8.08794 89.8159 8.47475C89.8159 10.0572 90.7588 10.7253 93.0286 10.7253C94.3905 10.7253 95.7175 10.4792 97.0794 9.95168L96.3461 13.4682C95.054 13.8902 93.727 14.1363 92.0159 14.1363C88.1048 14.1011 85.7651 12.2374 85.7651 8.86157Z" fill="white"></path><path d="M1.71112 10.2331L0.942871 13.8902H4.8889L6.66985 5.38031C4.22541 5.83745 2.23493 7.73636 1.71112 10.2331Z" fill="white"></path><path d="M66.349 6.18909L64.7427 13.8902H68.6887L70.33 6.18909H66.349Z" fill="white"></path><path d="M66.5237 5.38024H70.5046L70.9586 3.20001H66.9777L66.5237 5.38024Z" fill="#F4B223"></path><path opacity="0.5" d="M62.5427 5.38024H66.5237L66.9776 3.20001H62.9967L62.5427 5.38024Z" fill="#F4B223"></path><path opacity="0.4" d="M58.5271 5.38024H62.543L62.9969 3.20001H59.016L58.5271 5.38024Z" fill="#F4B223"></path><path opacity="0.3" d="M54.5459 5.38024H58.5269L59.0157 3.20001H55.0348L54.5459 5.38024Z" fill="#F4B223"></path><path d="M41.241 3.20001H51.1933L51.7171 0.738464C50.5997 0.28132 49.4124 0 47.7362 0C44.1394 0 41.7648 1.09011 40.2981 3.20001H41.241Z" fill="white"></path><path d="M45.7808 10.6902C43.4761 10.6902 42.5681 10.022 42.5681 8.4396C42.5681 8.05279 42.638 7.59564 42.7427 7.10333C42.8824 6.4352 43.0919 5.83739 43.3713 5.38025H40.9268H39.2157C39.0062 5.90772 38.8665 6.50553 38.7268 7.10333C38.5872 7.7363 38.5522 8.29894 38.5522 8.86158C38.5522 12.2023 40.9268 14.066 44.838 14.066C46.5141 14.066 47.8411 13.8198 49.1681 13.3979L49.9014 9.88136C48.4348 10.4792 47.1078 10.6902 45.7808 10.6902Z" fill="white"></path><path d="M23.6413 3.20001C23.3968 1.4066 22.0349 0.246155 19.7301 0.246155H12.6413L12.0127 3.20001H23.6413Z" fill="white"></path><path d="M23.4667 5.38025H19.4159C19.1016 6.3297 18.3683 6.85718 17.3207 6.85718H15.2254L15.5397 5.38025H11.5588L9.77783 13.8902H13.7239L14.562 9.91653H15.6794C16.2731 9.91653 16.5175 10.0924 16.6223 10.6198L17.3905 13.9253H21.5112L20.6731 10.3385C20.5334 9.70554 20.4286 9.38905 20.1492 9.1429C21.7556 8.40444 23.0127 7.06817 23.4667 5.38025Z" fill="white"></path><path d="M0 0.210999C1.57143 2.03958 3.87619 3.16485 6.46031 3.16485H7.15872H10.9651L11.5936 0.210999H0Z" fill="white"></path><path d="M38.1333 3.20002L38.7619 0.210999H34.7809L34.1523 3.20002H38.1333Z" fill="white"></path><path d="M33.6984 5.38021L33.1047 8.19341C32.7206 9.98682 31.9174 10.6901 30.1365 10.6901C28.6698 10.6901 28.0762 10.3033 28.0762 9.21319C28.0762 8.93188 28.1111 8.58023 28.2159 8.15825L28.8095 5.34505H24.8286L25.0032 4.53625L24.1651 8.43958C24.0952 8.82639 24.0254 9.21319 24.0254 9.60001C24.0254 12.1319 25.946 14.066 29.4032 14.066C33.7682 14.066 36.1778 12.4484 36.9809 8.58023L37.6793 5.34505H33.6984V5.38021Z" fill="white"></path><path d="M29.2637 3.20002L29.8922 0.210999H25.9113L25.2827 3.20002H29.2637Z" fill="white"></path><path d="M56.6763 3.20002L57.3048 0.210999H53.3239L52.7302 3.20002H56.6763Z" fill="white"></path><path d="M62.7523 3.20002L65.9301 0.210999H61.4253L58.2476 3.20002H62.7523Z" fill="white"></path><path d="M60.4126 5.38025H52.2412L50.4602 13.8902H54.4412L55.2443 9.91653L56.9904 8.36927L59.1904 13.8902H63.3808L59.9586 5.80223L60.4126 5.38025Z" fill="white"></path><path d="M91.6577 20.7874L92.3878 17.0342H93.6094C94.0188 17.0342 94.3555 17.1115 94.6193 17.2662C94.8832 17.4163 95.0743 17.6074 95.1926 17.8394C95.3108 18.0714 95.37 18.308 95.37 18.5491C95.37 19.318 95.1357 19.8844 94.6671 20.2483C94.1985 20.6077 93.4843 20.7874 92.5243 20.7874H91.6577ZM94.3737 17.9008C94.1962 17.7234 93.9165 17.6347 93.5343 17.6347H92.9406L92.4424 20.1801H92.8997C93.5411 20.1801 93.9915 20.0413 94.2508 19.7638C94.5147 19.4863 94.6466 19.111 94.6466 18.6378C94.6466 18.3194 94.5556 18.0737 94.3737 17.9008Z" fill="white"></path><path d="M87.4005 20.7874L88.0897 17.0342H88.895L90.1642 19.8867L90.7034 17.0342H91.3585L90.6488 20.7874H89.8708L88.5811 17.9281L88.0692 20.7874H87.4005Z" fill="white"></path><path d="M87.0309 18.59C87.0309 18.9813 86.949 19.3498 86.7853 19.6955C86.626 20.0413 86.3849 20.3211 86.0619 20.5349C85.7389 20.7487 85.3476 20.8556 84.8882 20.8556C84.5242 20.8556 84.2171 20.7828 83.9669 20.6373C83.7212 20.4871 83.5393 20.2915 83.421 20.0504C83.3027 19.8047 83.2435 19.5431 83.2435 19.2656C83.2435 18.8698 83.3254 18.5013 83.4892 18.1601C83.653 17.8143 83.8987 17.5346 84.2262 17.3207C84.5538 17.1069 84.9541 17 85.4273 17C85.7594 17 86.046 17.0751 86.2871 17.2252C86.5282 17.3753 86.7125 17.5732 86.8398 17.8189C86.9672 18.06 87.0309 18.3171 87.0309 18.59ZM85.0042 20.2551C85.2862 20.2551 85.5251 20.1755 85.7207 20.0163C85.9209 19.857 86.071 19.6591 86.1711 19.4226C86.2712 19.1814 86.3212 18.9426 86.3212 18.706C86.3212 18.3785 86.2257 18.1146 86.0346 17.9144C85.8481 17.7097 85.5933 17.6051 85.2703 17.6005C84.9882 17.6005 84.7471 17.6801 84.5469 17.8394C84.3513 17.9986 84.2035 18.1988 84.1034 18.4399C84.0033 18.6765 83.9532 18.913 83.9532 19.1496C83.9532 19.5045 84.0397 19.7774 84.2126 19.9685C84.3854 20.1596 84.6493 20.2551 85.0042 20.2551Z" fill="white"></path><path d="M80.8417 19.0882L79.9204 17.0342H80.6028L81.2852 18.4877L82.5818 17.0342H83.3188L81.5036 19.136L81.1897 20.7874H80.5209L80.8417 19.0882Z" fill="white"></path><path d="M78.7878 20.7874H76.3243L77.0545 17.0342H79.4498L79.3338 17.6347H77.6073L77.423 18.5764H78.9448L78.8288 19.1838H77.307L77.1091 20.1801H78.9038L78.7878 20.7874Z" fill="white"></path><path d="M72.7495 20.7874L73.4797 17.0342H74.6398C74.9492 17.0342 75.1971 17.0774 75.3836 17.1638C75.5702 17.2503 75.6998 17.3549 75.7726 17.4777C75.85 17.6006 75.8886 17.7257 75.8886 17.8531C75.8886 18.2489 75.6634 18.5742 75.213 18.8289C75.4269 18.8744 75.5861 18.9654 75.6907 19.1019C75.7954 19.2338 75.8477 19.384 75.8477 19.5523C75.8477 19.8662 75.7248 20.1505 75.4792 20.4053C75.2381 20.6601 74.7626 20.7874 74.0529 20.7874H72.7495ZM75.1994 18.0237C75.1994 17.7507 74.9651 17.6142 74.4965 17.6142H74.0325L73.8482 18.5764H74.3532C74.6853 18.5764 74.9082 18.5264 75.022 18.4263C75.1403 18.3262 75.1994 18.192 75.1994 18.0237ZM75.1789 19.6273C75.1789 19.2998 74.8377 19.136 74.1553 19.136L73.739 19.1428L73.5343 20.2006H73.9915C74.4465 20.2006 74.7581 20.1551 74.9264 20.0641C75.0948 19.9686 75.1789 19.823 75.1789 19.6273Z" fill="white"></path><path d="M67.274 20.7874L68.0042 17.0342H69.2257C69.6352 17.0342 69.9718 17.1115 70.2357 17.2662C70.4996 17.4163 70.6906 17.6074 70.8089 17.8394C70.9272 18.0714 70.9864 18.308 70.9864 18.5491C70.9864 19.318 70.7521 19.8844 70.2835 20.2483C69.8149 20.6077 69.1006 20.7874 68.1407 20.7874H67.274ZM69.99 17.9008C69.8126 17.7234 69.5328 17.6347 69.1507 17.6347H68.557L68.0588 20.1801H68.516C69.1575 20.1801 69.6079 20.0413 69.8672 19.7638C70.1311 19.4863 70.263 19.111 70.263 18.6378C70.263 18.3194 70.172 18.0737 69.99 17.9008Z" fill="white"></path><path d="M63.0168 20.7874L63.7061 17.0342H64.5113L65.7806 19.8867L66.3197 17.0342H66.9748L66.2651 20.7874H65.4872L64.1974 17.9281L63.6856 20.7874H63.0168Z" fill="white"></path><path d="M59.0934 20.7874L61.2157 17.0342H61.8708L62.5805 20.7874H61.9322L61.7411 19.7979H60.3354L59.7894 20.7874H59.0934ZM60.6834 19.1974H61.6524L61.4272 17.7917L60.6834 19.1974Z" fill="white"></path><path d="M57.7049 18.59C57.7049 18.9813 57.623 19.3498 57.4593 19.6955C57.3 20.0413 57.0589 20.3211 56.7359 20.5349C56.4129 20.7487 56.0216 20.8556 55.5621 20.8556C55.1982 20.8556 54.8911 20.7828 54.6409 20.6373C54.3952 20.4871 54.2132 20.2915 54.095 20.0504C53.9767 19.8047 53.9175 19.5431 53.9175 19.2656C53.9175 18.8698 53.9994 18.5013 54.1632 18.1601C54.327 17.8143 54.5726 17.5346 54.9002 17.3207C55.2278 17.1069 55.6281 17 56.1013 17C56.4334 17 56.72 17.0751 56.9611 17.2252C57.2022 17.3753 57.3865 17.5732 57.5138 17.8189C57.6412 18.06 57.7049 18.3171 57.7049 18.59ZM55.6782 20.2551C55.9602 20.2551 56.1991 20.1755 56.3947 20.0163C56.5949 19.857 56.745 19.6591 56.8451 19.4226C56.9452 19.1814 56.9952 18.9426 56.9952 18.706C56.9952 18.3785 56.8997 18.1146 56.7086 17.9144C56.5221 17.7097 56.2673 17.6051 55.9443 17.6005C55.6622 17.6005 55.4211 17.6801 55.2209 17.8394C55.0253 17.9986 54.8775 18.1988 54.7774 18.4399C54.6773 18.6765 54.6272 18.913 54.6272 19.1496C54.6272 19.5045 54.7137 19.7774 54.8866 19.9685C55.0594 20.1596 55.3233 20.2551 55.6782 20.2551Z" fill="white"></path><path d="M52.9698 20.5212C52.4694 20.7396 51.9894 20.8488 51.5299 20.8488C51.2115 20.8488 50.9317 20.7783 50.6906 20.6373C50.454 20.4917 50.272 20.2983 50.1447 20.0572C50.0173 19.8115 49.9536 19.5477 49.9536 19.2656C49.9536 18.8698 50.0377 18.499 50.2061 18.1533C50.3744 17.8075 50.636 17.53 50.9908 17.3207C51.3457 17.1069 51.7847 17 52.3079 17C52.5308 17 52.7333 17.0227 52.9152 17.0682C53.0972 17.1137 53.2746 17.1797 53.4475 17.2661L53.1336 17.7575C52.9698 17.6983 52.8174 17.6551 52.6764 17.6278C52.5354 17.6005 52.3807 17.5869 52.2124 17.5869C51.8803 17.5869 51.5959 17.6642 51.3593 17.8189C51.1273 17.9736 50.9522 18.1715 50.8339 18.4126C50.7202 18.6537 50.6633 18.8994 50.6633 19.1496C50.6633 19.5045 50.7565 19.7774 50.9431 19.9685C51.1296 20.1596 51.3775 20.2551 51.6869 20.2551C51.9553 20.2551 52.2055 20.2187 52.4376 20.1459L52.5877 19.2861H51.5845L51.6937 18.7265H53.311L52.9698 20.5212Z" fill="white"></path><path d="M46.1933 20.7874L46.9234 17.0342H48.1723C48.5226 17.0342 48.8342 17.1115 49.1072 17.2662C49.3801 17.4163 49.5166 17.6711 49.5166 18.0305C49.5166 18.6037 49.1549 19.0064 48.4316 19.2384L49.0799 20.7874H48.3429L47.7696 19.3271C47.7014 19.3316 47.5808 19.3339 47.408 19.3339C47.3579 19.3339 47.2647 19.3294 47.1282 19.3203L46.862 20.7874H46.1933ZM47.9471 17.6347H47.4762L47.2851 18.7129C47.3625 18.7266 47.4762 18.7334 47.6263 18.7334C48.0358 18.7334 48.3338 18.6856 48.5203 18.5901C48.7114 18.49 48.8069 18.3239 48.8069 18.0919C48.8069 17.919 48.7296 17.8008 48.5749 17.7371C48.4202 17.6688 48.2109 17.6347 47.9471 17.6347Z" fill="white"></path><path d="M42.2698 20.7874L44.3921 17.0342H45.0472L45.7569 20.7874H45.1087L44.9176 19.7979H43.5118L42.9659 20.7874H42.2698ZM43.8598 19.1974H44.8289L44.6037 17.7917L43.8598 19.1974Z" fill="white"></path><path d="M40.0373 17.3207C40.3921 17.1069 40.8311 17 41.3543 17C41.5636 17 41.7524 17.0205 41.9207 17.0614C42.0891 17.0978 42.2528 17.1547 42.4121 17.232L42.0982 17.7234C41.9526 17.6733 41.8161 17.6392 41.6887 17.621C41.5613 17.5982 41.418 17.5869 41.2588 17.5869C40.9267 17.5869 40.6423 17.6642 40.4058 17.8189C40.1737 17.9736 39.9986 18.1715 39.8803 18.4126C39.7666 18.6537 39.7097 18.8994 39.7097 19.1496C39.7097 19.4817 39.8075 19.7501 40.0031 19.9548C40.1988 20.155 40.4649 20.2551 40.8016 20.2551C41.0882 20.2551 41.4339 20.1891 41.8388 20.0572L41.948 20.5963C41.7069 20.6828 41.4885 20.7464 41.2929 20.7874C41.0973 20.8283 40.8812 20.8488 40.6446 20.8488C40.3034 20.8488 40.0077 20.7783 39.7575 20.6373C39.5118 20.4917 39.323 20.2983 39.1911 20.0572C39.0637 19.8161 39 19.5522 39 19.2656C39 18.8698 39.0842 18.499 39.2525 18.1533C39.4208 17.8075 39.6824 17.53 40.0373 17.3207Z" fill="white"></path></g><defs><clipPath id="clip0_3363_2628"><rect width="99" height="22" fill="white"></rect></clipPath></defs></svg>